<svg width="38" height="50" viewBox="0 0 38 50" fill="none" xmlns="http://www.w3.org/2000/svg">
<path d="M0.25 6.25V48.4375C0.249802 48.7088 0.320264 48.9755 0.454452 49.2114C0.588639 49.4472 0.781927 49.644 1.01529 49.7825C1.24865 49.9209 1.51403 49.9962 1.78533 50.0009C2.05662 50.0056 2.32447 49.9396 2.5625 49.8094L19 40.8406L35.4375 49.8094C35.6755 49.9396 35.9434 50.0056 36.2147 50.0009C36.486 49.9962 36.7514 49.9209 36.9847 49.7825C37.2181 49.644 37.4114 49.4472 37.5455 49.2114C37.6797 48.9755 37.7502 48.7088 37.75 48.4375V6.25C37.75 4.5924 37.0915 3.00269 35.9194 1.83058C34.7473 0.65848 33.1576 0 31.5 0L6.5 0C4.8424 0 3.25269 0.65848 2.08058 1.83058C0.90848 3.00269 0.25 4.5924 0.25 6.25Z" fill="#9D763C"/>
</svg>
