<svg width="33" height="33" viewBox="0 0 33 33" fill="none" xmlns="http://www.w3.org/2000/svg">
<path d="M0.448792 28.5306L6.87524 22.1053C7.1653 21.8153 7.55849 21.6541 7.97102 21.6541H9.02168C7.24265 19.3792 6.18554 16.5177 6.18554 13.4049C6.18554 6 12.1866 0 19.5928 0C26.999 0 33 6 33 13.4049C33 20.8099 26.999 26.8099 19.5928 26.8099C16.4795 26.8099 13.6175 25.753 11.3422 23.9742V25.0247C11.3422 25.4372 11.181 25.8303 10.891 26.1203L4.46451 32.5457C3.85861 33.1514 2.87885 33.1514 2.27939 32.5457L0.455235 30.7218C-0.150669 30.116 -0.150669 29.1364 0.448792 28.5306ZM19.5928 21.6541C24.1499 21.6541 27.8434 17.9678 27.8434 13.4049C27.8434 8.84855 24.1564 5.15575 19.5928 5.15575C15.0356 5.15575 11.3422 8.8421 11.3422 13.4049C11.3422 17.9613 15.0292 21.6541 19.5928 21.6541Z" fill="#FFAD61"/>
</svg>
